# xmcd CD database file
#
# Track frame offsets:
#	150
#	23048
#	43890
#	69262
#	93194
#	114360
#	137077
#	161879
#	182737
#	197759
#	216037
#	233692
#
# Disc length: 3398 seconds
#
# Revision: 0
# Processed by: cddbd v1.5.2PL0 Copyright (c) Steve Scherf et al.
# Submitted via: CDex 1.51
#
DISCID=9f0d440c
DTITLE=Luciana Souza - The New Bossa Nova
DYEAR=2007
DGENRE=Jazz
TTITLE0=Down to You
TTITLE1=Never Die Young (Ft. James Taylor)
TTITLE2=Here it Is
TTITLE3=When We Dance
TTITLE4=Satellite
TTITLE5=Where You Blind That
TTITLE6=Love is for Strangers
TTITLE7=You and the Girl
TTITLE8=Living Without You
TTITLE9=I Can Let You Go Now
TTITLE10=God Only Knows
TTITLE11=Waters of March
EXTD=YEAR: 2007
EXTT0=
EXTT1=
EXTT2=
EXTT3=
EXTT4=
EXTT5=
EXTT6=
EXTT7=
EXTT8=
EXTT9=
EXTT10=
EXTT11=
PLAYORDER=
